<?xml version="1.0" encoding="UTF-8"?>
<!DOCTYPE svg PUBLIC "-//W3C//DTD SVG 1.1//EN" "http://www.w3.org/Graphics/SVG/1.1/DTD/svg11.dtd">
<!-- Creator: CorelDRAW -->
<svg xmlns="http://www.w3.org/2000/svg" xml:space="preserve" width="573px" height="354px" version="1.1" style="shape-rendering:geometricPrecision; text-rendering:geometricPrecision; image-rendering:optimizeQuality; fill-rule:evenodd; clip-rule:evenodd"
viewBox="0 0 498.219 307.496"
 xmlns:xlink="http://www.w3.org/1999/xlink"
 xmlns:xodm="http://www.corel.com/coreldraw/odm/2003">
 <defs>
  <style type="text/css">
   <![CDATA[
    .fil2 {fill:#180A09}
    .fil9 {fill:#2B151A}
    .fil1 {fill:#30302A}
    .fil16 {fill:#3E8C5B}
    .fil0 {fill:#41DFFF}
    .fil6 {fill:#442724}
    .fil17 {fill:#558D5E}
    .fil7 {fill:#85BC84}
    .fil3 {fill:#868A5C}
    .fil8 {fill:#8D9A6A}
    .fil11 {fill:#AFBD8D}
    .fil4 {fill:#BAD29A}
    .fil13 {fill:#CCB889}
    .fil19 {fill:#CFC898}
    .fil14 {fill:#D7A82E}
    .fil18 {fill:#EAC85B}
    .fil10 {fill:#EADAB5}
    .fil15 {fill:#FCDA68}
    .fil5 {fill:#FDFBE7}
    .fil12 {fill:#FFDD51}
   ]]>
  </style>
 </defs>
 <g id="Layer_x0020_1">
  <metadata id="CorelCorpID_0Corel-Layer"/>
  <rect class="fil0" width="498.219" height="172.653"/>
  <path class="fil1" d="M251.67 107.515c-5.525,0.893 -3.412,6.705 2.526,5.424 4.887,-1.055 3.956,-6.472 -2.526,-5.424z"/>
  <path class="fil1" d="M204.683 107.547c-4.533,1.563 -0.544,7.023 4.507,5.17 4.503,-1.652 0.834,-7.011 -4.507,-5.17z"/>
  <path class="fil2" d="M222.34 101.359c-6.185,2.391 8.725,17.389 14.615,4.338 0.941,-2.084 0.593,-5.424 -2.07,-4.345 -1.823,0.738 -0.712,3.119 -3.181,4.716 -6.13,3.964 -6.015,-6.004 -9.364,-4.709z"/>
  <path class="fil2" d="M304.838 155.445c-1.186,0.663 -2.153,2.136 -2.939,3.279 -1.394,2.029 1.665,5.677 4.839,-0.74 1.048,-2.119 -0.375,-3.39 -1.9,-2.539z"/>
  <path class="fil2" d="M47.709 66.177c-1.349,0.666 -1.029,2.334 -0.779,4.603 0.12,1.095 0.594,3.936 2.334,2.984 1.111,-0.609 1.341,-9.016 -1.555,-7.587z"/>
  <path class="fil2" d="M69.256 92.872c1.55,1.417 5.504,1.324 5.15,-0.477 -0.251,-1.279 -4.675,-2.254 -5.15,0.477z"/>
  <path class="fil2" d="M311.674 239.31c-0.138,3.081 3.037,3.102 3.768,1.281 0.699,-1.742 -1.593,-3.466 -3.768,-1.281z"/>
  <path class="fil2" d="M408.299 154.71c-2.72,-0.966 -4.561,0.926 -2.477,2.194 1.697,1.032 3.686,0.241 2.477,-2.194z"/>
  <path class="fil2" d="M145.338 272.475c-1.955,-2.147 -3.933,-0.686 -2.719,1.917 1.771,0.352 2.753,0.089 2.719,-1.917z"/>
  <path class="fil2" d="M148.483 272.787c-1.112,1.61 -0.214,3.693 1.462,2.864 1.485,-0.736 1.103,-3.232 -1.462,-2.864z"/>
  <path class="fil2" d="M74.791 223.486c1.683,-0.783 1.33,-2.511 -0.285,-2.459 -1.654,0.054 -1.43,2.005 0.285,2.459z"/>
  <path class="fil3" d="M433.66 218.574l2.904 2.418 -0.401 0.756 -19.112 0.082 0.003 0.873c0.853,2.394 51.135,1.49 51.259,-5.476l0.246 -1.343 -23.163 -3.278 0.132 3.033 -0.028 0.822 -11.84 2.113z"/>
  <path class="fil3" d="M436.387 205.257c-5.931,0.635 -3.384,3.182 -8.504,6.33 -4.212,2.589 -10.174,4.357 0.561,3.914 2.227,-0.092 12.087,-0.367 13.197,-1.598 0.665,-0.738 1.899,-9.412 -5.254,-8.646z"/>
  <path class="fil4" d="M430.534 204.403c-0.209,-0.628 -3.968,-5.248 -4.785,-6.535 -2.463,-3.878 -3.01,-3.945 -7.425,-1.706 -4.113,2.087 -10.651,6.451 -12.809,10.595 -4.367,8.389 6.914,8.463 12.7,8.371 1.791,-0.028 11.988,-8.304 12.319,-10.725z"/>
  <polygon class="fil4" points="240.352,182.238 211.196,180.242 209.898,178.876 202.111,200.489 "/>
  <path class="fil4" d="M274.87 152.131l-0.287 5.842c1.778,-0.445 3.987,-2.69 5.107,-3.948 3.445,-3.868 1.98,-1.256 1.959,-5.848 -1.076,0.838 -0.722,-0.327 -0.731,-0.334l-0.856 -0.201c-6.498,-1.085 -3.789,2.577 -5.192,4.489z"/>
  <path class="fil5" d="M201.961 143.988l0.187 -68.402 0.743 -0.246 3.103 -0.581 -8.59 -3.66c-1.124,3.833 -0.305,32.077 -0.315,38.444 -0.012,6.49 -0.028,12.972 -0.015,19.462 0.014,7.417 -2.347,12.307 4.887,14.983z"/>
  <path class="fil5" d="M262.5 71.896l-0.618 -0.959c-0.006,-0.012 -0.033,-0.074 -0.039,-0.085 -0.458,-0.839 1.15,-0.053 -0.114,-0.402l-11.8 2.218 -0.24 -1.111 14.959 -3.878 -0.42 -3.574 -14.515 -1.614c-0.867,3.902 -0.16,3.695 -6.789,5.877 -7.455,2.454 -10.112,4.021 -17.845,1.273 -5.43,-2.632 -3.728,-3.17 -4.435,-7.05l-0.306 -1.393 -14.885 3.83 -1.06 2.665c-0.742,-2.495 2.578,1.637 -0.056,0.689 -6.197,-7.456 14.373,-7.648 15.371,-9.161l-0.691 -3.384 -22.058 6.443 0.77 3.655c1.378,12.761 55.904,7.485 64.771,5.961z"/>
  <path class="fil5" d="M201.84 172.645l-0.288 -25.405 -4.262 -2.534c0.206,7.115 -3.066,25.03 4.55,27.939z"/>
  <path class="fil5" d="M226.835 67.021l-0.216 -7.279 -1.549 -1.917 20.002 -0.673 -0.049 -1.453c-2.786,-2.35 -14.336,-1.802 -17.89,-0.951 -4.364,1.044 -7.185,10.416 -0.298,12.273z"/>
  <path class="fil5" d="M197.351 203.937c0.18,-1.471 -7.76,-11.295 -10.378,-8.884 -2.153,1.983 7.536,9.45 10.378,8.884z"/>
  <path class="fil6" d="M34.921 212.257c1.16,2.454 2.924,5.087 3.809,7.401 -2.595,0.685 -2.667,0.049 -3.787,-1.867 -1.373,-2.351 -5.61,-10.105 -4.916,-12.11 1.807,0.39 4.077,4.848 4.894,6.576zm11.71 -1.453c-0.967,-3.092 -2.429,-14.364 -7.482,-10.942l-0.868 0.09 1.653 16.03c-4.11,-4.099 -4.883,-16.112 -13.878,-12.511l6.266 15.652 -2.891 0.779c0.189,4.949 39.26,4.831 40.116,-0.507l-4.176 -0.34 7.473 -9.483 -2.038 -2.619 -12.252 6.173 0.699 1.005 5.043 -13.965 -1.058 -0.382c-5.079,-2.901 -12.415,13.171 -10.136,15.611l6.732 -12.11 0.497 0.263c0.051,0.098 -4.12,17.778 -10.426,15.677l-0.872 -0.001 0.039 -31.711 0.91 0.001c1.475,2.619 0.218,19.388 0.478,23.746 1.02,17.095 2.715,-9.905 2.763,-11.914 0.077,-3.201 0.174,-8.84 -0.471,-11.861 -0.898,-4.199 -4.985,-5.218 -5.784,-0.404 -1.232,7.425 -0.068,16.198 -0.337,23.723z"/>
  <path class="fil6" d="M355.236 218.904c3.117,-0.077 9.756,1.766 9.392,-3.045 -1.32,-2.694 -3.065,-4.73 -6.758,-3.721 -3.206,0.875 -4.486,3.977 -2.634,6.766z"/>
  <path class="fil7" d="M230.693 167.57c-1.934,-4.348 -3.483,0.053 -4.753,-0.099 -2.547,-0.637 -6.553,0.923 -6.955,-2.19 -1.117,-4.466 31.316,0.948 11.708,2.289zm-28.853 5.075c8.571,6.733 47.301,7.626 56.882,3.042l2.025 -25.119c-18.483,2.295 -41.912,5.729 -59.195,-3.328l0.288 25.405z"/>
  <path class="fil7" d="M427.013 77.37l30.877 -0.179 0.066 -1.827 0.568 -14.836c-16.905,5.018 -8.028,1.709 -21.482,-0.445 -13.904,-2.226 -9.611,6.955 -10.029,17.287z"/>
  <path class="fil7" d="M226.835 67.021l10.765 1.383 0.237 -7.237c-1.676,-0.004 -3.665,0.232 -5.13,-0.394l-6.088 -1.031 0.216 7.279z"/>
  <path class="fil8" d="M121.968 307.496l7.607 0c34.554,-17.907 68.55,-34.938 101.915,-55.179 5.473,-3.32 46.982,-30.954 47.637,-31.093 8.385,-1.774 27.739,-0.339 38.035,-1.14 12.063,-0.938 27.014,0.818 38.074,-1.18 -1.852,-2.789 -0.572,-5.891 2.634,-6.766 3.693,-1.009 5.438,1.027 6.758,3.721l4.193 4.711 3.886 1.915 9.676 -2.862c7.56,-0.09 3.364,-3.008 2.95,-6.114l1.143 -4.948c1.873,-2.026 0.544,-4.14 -1.426,-3.486l-85.366 -4.336c-58.693,47.041 -112.335,71.939 -177.716,106.757z"/>
  <path class="fil8" d="M427.049 122.46c6.006,5.942 12.012,11.885 18.017,17.827l1.297 -1.056c-0.733,-3.264 -1.705,-2.381 -0.506,-3.529l7.589 10.18 0.543 0.523 -27.02 -0.164 53.072 -0.172c-3.483,-4.203 -11.617,-11.546 -16.338,-15.422 -6.169,-6.121 -14.404,-16.304 -23.638,-8.171l-12.771 -7.483c-0.825,0.933 -0.266,5.986 -0.245,7.467z"/>
  <path class="fil8" d="M423.702 145.607c0.126,-10.167 0.348,-21.597 0.081,-31.677 -0.097,-3.622 -4.987,-6.181 -7.781,-8.099 -5.194,-3.565 -7.531,1.856 -11.516,1.98 -3.344,0.103 -28.764,-26.843 -34.236,-29.744l20.229 31.061 0.602 -0.287 6.403 6.744 0.246 -0.171 0.147 3.85c0.419,0.005 2.526,-0.086 2.945,-0.081l0.555 -3.655c2.784,1.002 6.052,4.297 8.938,4.431l5.314 -7.99c-0.325,0.584 8.405,9.548 7.79,12.553 -0.071,2.938 -0.444,19.457 0.283,21.085z"/>
  <path class="fil8" d="M149.896 106.433l-37.295 -30.19c4.957,6.524 8.58,15.436 14.718,23.037 2.65,3.282 6.573,7.15 8.252,10.703 1.27,5.501 8.805,7.709 10.825,6.149l3.324 -2.248c0.54,1.99 0.607,0.178 2.767,1.457l5.993 -8.256 -3.048 -2.628 -5.536 1.976z"/>
  <path class="fil8" d="M406.292 266.857l38.164 0.54c0.888,-1.443 0.089,-3.558 1.739,-5.036 2.723,-0.147 2.798,2.357 2.773,4.538l8.249 -1.97 0.058 -3.285 -34.262 -5.171c1.744,10.392 -10.923,8.245 -16.721,10.384z"/>
  <path class="fil8" d="M415.975 246.27c-4.13,-0.806 -3.306,3.966 -2.043,6.211 1.291,2.294 6.267,3.472 5.048,5.19 -1.024,1.444 -7.835,-4.159 -14.901,-5.414l-1.996 11.241 17.376 -2.905 0.678 -1.072 -4.162 -13.251z"/>
  <path class="fil8" d="M411.681 251.503l-0.522 -5.724 0.097 -0.321 1.904 -0.373 -18.42 -12.998c1.884,7.746 9.007,18.148 16.941,19.416z"/>
  <path class="fil8" d="M383.229 262.958c1.419,0.755 13.654,1.05 15.139,0.598 2.197,-0.667 2.849,-10.143 3.058,-12.772l-0.282 -0.48 -17.915 12.654z"/>
  <path class="fil8" d="M38.73 219.658c-0.885,-2.314 -2.649,-4.947 -3.809,-7.401 -0.817,-1.728 -3.087,-6.186 -4.894,-6.576 -0.694,2.005 3.543,9.759 4.916,12.11 1.12,1.916 1.192,2.552 3.787,1.867z"/>
  <path class="fil9" d="M383.229 262.958l17.915 -12.654 0.282 0.48c-0.209,2.629 -0.861,12.105 -3.058,12.772 -1.485,0.452 -13.72,0.157 -15.139,-0.598zm32.746 -16.688l4.162 13.251 -0.678 1.072 -17.376 2.905 1.996 -11.241c7.066,1.255 13.877,6.858 14.901,5.414 1.219,-1.718 -3.757,-2.896 -5.048,-5.19 -1.263,-2.245 -2.087,-7.017 2.043,-6.211zm-51.496 12.79c-5.112,-7.184 16.662,-27.466 26.233,-28.269l2.539 5.345 7.485 12.549 -0.831 -0.63 -20.802 13.17 1.084 2.421 -15.708 -4.586zm47.202 -7.557c-7.934,-1.268 -15.057,-11.67 -16.941,-19.416l18.42 12.998 -1.904 0.373 -0.097 0.321 0.522 5.724zm-5.389 15.354c5.798,-2.139 18.465,0.008 16.721,-10.384 -2.751,-14.44 -9.488,-14.182 -21.118,-22.799 -10.959,-8.12 -19.796,-6.442 -29.086,3.739 -31.56,34.585 7.846,29.059 33.483,29.444z"/>
  <path class="fil9" d="M436.387 205.257c7.153,-0.766 5.919,7.908 5.254,8.646 -1.11,1.231 -10.97,1.506 -13.197,1.598 -10.735,0.443 -4.773,-1.325 -0.561,-3.914 5.12,-3.148 2.573,-5.695 8.504,-6.33zm-5.853 -0.854c-0.331,2.421 -10.528,10.697 -12.319,10.725 -5.786,0.092 -17.067,0.018 -12.7,-8.371 2.158,-4.144 8.696,-8.508 12.809,-10.595 4.415,-2.239 4.962,-2.172 7.425,1.706 0.817,1.287 4.576,5.907 4.785,6.535zm3.126 14.171l11.84 -2.113 0.028 -0.822 -0.132 -3.033c-1.19,-10.307 -5.973,-10.393 -13.987,-16.513 -8.53,-6.514 -13.095,-3.994 -20.978,1.658 -4.267,3.058 -15.515,15.339 -5.313,18.522 7.646,2.386 20.39,2.058 28.542,2.301z"/>
  <path class="fil9" d="M61.893 96.476c-0.972,5.236 -13.655,4.115 -17.565,3.471 -7.252,-1.196 -12.883,-2.047 -6.485,-11.489 7.498,-11.066 26.339,-4.315 24.05,8.018zm-15.695 -16.504c-8.154,1.116 -12.724,6.768 -13.541,14.715 -1.055,10.248 11.657,8.568 19.347,8.349 8.831,-0.251 17.335,-2.122 12.188,-13.481 -3.064,-6.761 -10.697,-10.581 -17.994,-9.583z"/>
  <path class="fil9" d="M101.751 274.967c4.133,-8.399 -23.253,3.034 -23.732,6.533 -1.32,9.643 23.683,-6.431 23.732,-6.533z"/>
  <path class="fil9" d="M67 291.681c5.236,-7.939 -17.525,-0.552 -19.846,4.355 -4.049,8.559 18.152,-1.787 19.846,-4.355z"/>
  <path class="fil9" d="M247.37 93.808c-7.485,1.491 -5.607,13.972 2.731,12.343 7.113,-1.39 5.175,-13.918 -2.731,-12.343z"/>
  <path class="fil9" d="M209.099 93.889c-7.153,2.362 -3.488,14.742 3.725,11.926 7.149,-2.791 3.393,-14.276 -3.725,-11.926z"/>
  <path class="fil9" d="M132.254 261.066c3.789,-7.776 -19.117,1.477 -20.073,4.667 -2.738,9.139 19.907,-4.328 20.073,-4.667z"/>
  <path class="fil9" d="M163.201 246.887c3.171,-7.286 -19.511,1.904 -20.056,4.348 -1.739,7.803 19.251,-2.5 20.056,-4.348z"/>
  <path class="fil9" d="M306.179 237.175c-1.637,1.303 -11.635,2.025 -8.606,-1.586 2.287,-2.725 7.631,-1.415 8.606,1.586zm-5.826 -5.64c-7.962,1.591 -9.848,10.223 3.459,9.752 11.27,-0.399 3.769,-11.197 -3.459,-9.752z"/>
  <path class="fil9" d="M183.805 232.601c-2.526,0.608 -6.993,2.989 -9.706,4.061 -5.963,2.354 -3.088,6.182 1.211,4.854 2.921,-0.903 6.518,-2.954 9.532,-4.131 7.177,-2.805 1.89,-5.487 -1.037,-4.784z"/>
  <path class="fil9" d="M209.722 221.535c-2.877,0.724 -6.628,2.574 -9.459,3.76 -6.935,2.904 -2.979,5.933 0.492,4.998 2.258,-0.608 6.46,-3.008 9.152,-3.989 7.23,-2.635 2.71,-5.498 -0.185,-4.769z"/>
  <path class="fil9" d="M444.456 267.397c0.746,3.858 -1.701,8.819 1.125,11.993 3.014,0.067 2.777,-2.399 2.985,-4.833 0.21,-2.462 0.255,-5.152 0.402,-7.658 0.025,-2.181 -0.05,-4.685 -2.773,-4.538 -1.65,1.478 -0.851,3.593 -1.739,5.036z"/>
  <path class="fil9" d="M286.165 173.136c-0.613,0.139 -8.324,4.026 -8.622,5.715 -0.265,1.503 0.993,2.323 2.428,1.878 0.178,-0.055 8.221,-4.094 8.495,-5.664 0.226,-1.296 -1.033,-2.218 -2.301,-1.929z"/>
  <path class="fil9" d="M179.64 68.13c-3.566,2.792 5.274,5.092 6.914,3.596 3.144,-2.867 -5.918,-4.376 -6.914,-3.596z"/>
  <path class="fil9" d="M286.689 68.576c-0.951,0.208 -3.983,1.083 -4.491,1.789 -0.457,0.634 -0.226,1.626 0.449,2.047 0.862,0.539 1.864,0.26 2.823,0.068 1.215,-0.244 3.777,-0.549 4.356,-1.772 1.14,-2.405 -1.584,-2.47 -3.137,-2.132z"/>
  <path class="fil9" d="M182.83 77.923c-6.049,0.147 -6.134,4.206 -0.771,3.503 1.118,-0.147 3.988,-0.357 4.406,-1.488 0.868,-2.351 -2.292,-2.048 -3.635,-2.015z"/>
  <path class="fil9" d="M452.336 254.048c1.938,-0.718 1.545,-2.35 1.314,-4.078 -0.204,-1.526 0.016,-3.95 -2.094,-3.435 -2.007,0.49 -2.131,6.951 0.78,7.513z"/>
  <path class="fil9" d="M284.127 78.296c-5.077,1.67 3.078,3.982 5.019,3.552 1.759,-0.39 1.692,-2.597 -0.201,-3.243 -1.086,-0.37 -3.764,-0.656 -4.818,-0.309z"/>
  <path class="fil9" d="M299.84 165.107c-2.344,-2.928 -7.194,1.881 -6.645,3.484 1.092,3.182 6.223,-1.668 6.645,-3.484z"/>
  <path class="fil9" d="M24.342 78.308c-1.554,1.392 1,2.656 1.912,3.317 1.028,0.746 3.06,2.669 4.313,1.511 2.393,-2.211 -5.098,-5.837 -6.225,-4.828z"/>
  <path class="fil9" d="M457.618 247.412c-1.863,1.374 -3.24,7.43 0.294,5.901 2.546,-1.103 2.888,-8.248 -0.294,-5.901z"/>
  <path class="fil9" d="M64.312 70.632c-3.257,2.21 -5.527,8.311 -1.722,6.185 0.793,-0.443 2.286,-2.773 2.843,-3.603 1.542,-2.296 0.3,-3.547 -1.121,-2.582z"/>
  <path class="fil9" d="M71.532 80.041c-5.707,1.79 -4.915,5.476 -1.523,4.16 0.79,-0.306 3.561,-1.335 3.931,-1.936 0.75,-1.22 -0.819,-2.722 -2.408,-2.224z"/>
  <path class="fil9" d="M305.92 151.272c2.165,1.195 3.405,0.852 3.817,-1.689 0.405,-2.508 0.419,-4.376 -2.52,-3.838 -0.771,1.239 -1.189,3.906 -1.297,5.527z"/>
  <path class="fil9" d="M453.287 273.571c-2.857,1.706 -3.107,7.187 0.238,5.389 1.841,-0.99 3.258,-7.476 -0.238,-5.389z"/>
  <path class="fil9" d="M439.055 272.967c-1.953,1.039 -0.759,7.258 1.959,6.01 2.218,-1.019 0.147,-7.129 -1.959,-6.01z"/>
  <path class="fil9" d="M308.695 142.183c0.163,-1.391 -4,-6.043 -5.779,-4.4 -1.839,1.699 4.342,4.709 5.779,4.4z"/>
  <path class="fil9" d="M186.581 286.868c-0.998,-1.516 -6.666,-4.681 -6.04,-1.73 0.158,0.746 5.054,5.209 6.04,1.73z"/>
  <path class="fil9" d="M22.822 93.962c1.381,0.894 4.047,0.837 5.25,-0.26 0.159,-3.169 -5.222,-2.319 -5.25,0.26z"/>
  <path class="fil9" d="M461.758 254.424c1.806,2.281 3.947,0.008 3.759,-1.406 -0.224,-1.686 -4.081,-1.991 -3.759,1.406z"/>
  <path class="fil9" d="M295.475 134.265c0.09,1.115 0.691,1.334 1.854,1.826 1.235,0.522 1.984,0.541 3.289,0.234 0.337,-2.063 -3.748,-3.592 -5.143,-2.06z"/>
  <path class="fil9" d="M56.973 169.051c-1.466,-1.29 -4.934,-0.886 -3.96,1.165 0.611,1.286 4.258,1.567 3.96,-1.165z"/>
  <path class="fil9" d="M104.466 176.894c-2.75,-1.232 -5.074,0.639 -3.556,1.868 0.952,0.77 4.501,0.936 3.556,-1.868z"/>
  <path class="fil9" d="M395.823 180.896c2.018,-1.29 0.986,-3.81 -1.342,-3 -2.111,0.734 -1.191,3.714 1.342,3z"/>
  <path class="fil9" d="M136.863 273.299c0.184,2.157 3.223,2.177 3.192,-0.279 -0.03,-2.441 -3.394,-2.093 -3.192,0.279z"/>
  <path class="fil9" d="M389.405 177.712c-2.743,1.361 -0.449,4.058 1.211,3.02 2.071,-1.295 0.471,-3.855 -1.211,-3.02z"/>
  <path class="fil9" d="M128.728 218.063c2.714,-0.407 2.172,-3.002 0.252,-3.166 -2.188,-0.188 -2.674,2.253 -0.252,3.166z"/>
  <path class="fil9" d="M242.547 252.161c-0.473,-0.608 -0.982,-1.333 -1.9,-1.566 -0.855,-0.217 -2.157,0.097 -1.951,1.174 0.226,1.186 2.555,3.018 3.851,0.392z"/>
  <path class="fil9" d="M288.399 239.671c-2.663,1.408 0.241,3.263 1.792,2.432 1.776,-0.951 0.249,-3.511 -1.792,-2.432z"/>
  <path class="fil9" d="M412.457 154.869c1.065,1.562 2.945,1.318 3.79,-0.277 -0.89,-2.165 -3.367,-2.141 -3.79,0.277z"/>
  <path class="fil9" d="M402.911 158.259c0.157,-1.066 -0.198,-1.245 -0.892,-1.977 -4.515,-0.147 -1.001,5.2 0.892,1.977z"/>
  <path class="fil10" d="M67 291.681c-1.694,2.568 -23.895,12.914 -19.846,4.355 2.321,-4.907 25.082,-12.294 19.846,-4.355zm81.483 -18.894c2.565,-0.368 2.947,2.128 1.462,2.864 -1.676,0.829 -2.574,-1.254 -1.462,-2.864zm-46.732 2.18c-0.049,0.102 -25.052,16.176 -23.732,6.533 0.479,-3.499 27.865,-14.932 23.732,-6.533zm43.587 -2.492c0.034,2.006 -0.948,2.269 -2.719,1.917 -1.214,-2.603 0.764,-4.064 2.719,-1.917zm-8.475 0.824c-0.202,-2.372 3.162,-2.72 3.192,-0.279 0.031,2.456 -3.008,2.436 -3.192,0.279zm-4.609 -12.233c-0.166,0.339 -22.811,13.806 -20.073,4.667 0.956,-3.19 23.862,-12.443 20.073,-4.667zm30.947 -14.179c-0.805,1.848 -21.795,12.151 -20.056,4.348 0.545,-2.444 23.227,-11.634 20.056,-4.348zm20.604 -14.286c2.927,-0.703 8.214,1.979 1.037,4.784 -3.014,1.177 -6.611,3.228 -9.532,4.131 -4.299,1.328 -7.174,-2.5 -1.211,-4.854 2.713,-1.072 7.18,-3.453 9.706,-4.061zm25.917 -11.066c2.895,-0.729 7.415,2.134 0.185,4.769 -2.692,0.981 -6.894,3.381 -9.152,3.989 -3.471,0.935 -7.427,-2.094 -0.492,-4.998 2.831,-1.186 6.582,-3.036 9.459,-3.76zm76.443 -48.399c1.268,-0.289 2.527,0.633 2.301,1.929 -0.274,1.57 -8.317,5.609 -8.495,5.664 -1.435,0.445 -2.693,-0.375 -2.428,-1.878 0.298,-1.689 8.009,-5.576 8.622,-5.715zm13.675 -8.029c-0.422,1.816 -5.553,6.666 -6.645,3.484 -0.549,-1.603 4.301,-6.412 6.645,-3.484zm4.998 -9.662c1.525,-0.851 2.948,0.42 1.9,2.539 -3.174,6.417 -6.233,2.769 -4.839,0.74 0.786,-1.143 1.753,-2.616 2.939,-3.279zm1.082 -4.173c0.108,-1.621 0.526,-4.288 1.297,-5.527 2.939,-0.538 2.925,1.33 2.52,3.838 -0.412,2.541 -1.652,2.884 -3.817,1.689zm2.775 -9.089c-1.437,0.309 -7.618,-2.701 -5.779,-4.4 1.779,-1.643 5.942,3.009 5.779,4.4zm-8.077 -5.858c-1.305,0.307 -2.054,0.288 -3.289,-0.234 -1.163,-0.492 -1.764,-0.711 -1.854,-1.826 1.395,-1.532 5.48,-0.003 5.143,2.06zm-300.618 152.186l0 18.985 115.056 0c23.907,-15.495 58.824,-30.138 84.927,-44.676 21.9,-12.196 61.933,-33.459 79.433,-49.827l-52.362 0.11c2.787,-0.301 7.119,-4.266 9.034,-0.427 -0.414,2.617 -7.203,4.492 -9.596,5.747 -1.557,0.816 -4.298,1.805 -5.264,-0.397 1.245,-1.714 3.602,-2.273 3.139,-3.679 -9.105,0.083 -16.469,0.15 -25.574,0.234l-1.669 -1.671 50.808 -9.265 0.421 -1.152 -0.421 1.152 3.196 -2.145 45.558 -2.786c9.408,-5.171 28.796,-29.782 31.022,-40.608 5.091,-24.76 -24.886,-27.286 -42.116,-28.191 0.515,1.194 7.274,14.22 7.541,14.567 3.778,4.882 -3.187,12.97 -9.28,8.22 -2.22,3.127 -3.751,5.351 -6.966,7.693 -4.601,3.352 -0.135,5.728 -3.096,10.811 -4.191,7.192 -15.42,6.652 -19.831,9.372 -0.669,3.669 3.04,6.679 7.427,2.69 3.351,-3.047 6.057,-4.671 8.592,0.484 6.547,13.312 -2.4,15.573 -6.314,6.045 -3.272,0.361 -6.008,4.38 -11.329,0.483 -3.581,-2.622 -3.894,-5.225 -6.007,-8.476 -8.543,5.408 -20.22,10.685 -29.522,14.977 -2.716,1.254 -13.597,5.698 -14.831,7.399 -5.536,7.629 -4.212,1.105 -14.109,6.232 -17.604,9.12 -44.059,18.062 -63.141,25.518 -20.855,8.148 -42.431,16.851 -62.977,25.715 -20.19,8.71 -42.328,16.826 -61.749,26.866z"/>
  <path class="fil10" d="M364.479 259.06l28.772 -22.924 -2.539 -5.345c-9.571,0.803 -31.345,21.085 -26.233,28.269z"/>
  <path class="fil10" d="M305.778 129.325l62.639 -52.456c-5.771,-3.56 -29.159,19.992 -34.153,24.41 -4.998,4.422 -11.531,9.445 -16.08,13.946 -2.109,2.087 -17.339,13.499 -12.406,14.1z"/>
  <path class="fil10" d="M69.739 116.742l42.708 -40.572c-5.662,-1.508 -20.559,11.264 -31.031,23.401 -3.615,4.189 -6.863,8.569 -8.912,11.963 -1.382,2.291 -1.937,4.109 -2.765,5.208z"/>
  <path class="fil10" d="M274.87 152.131c1.403,-1.912 -1.306,-5.574 5.192,-4.489l0.856 0.201c0.009,0.007 -0.345,1.172 0.731,0.334l3.339 -5.457 1.479 -0.78 -10.426 -12.537 -0.927 0.794 -0.244 21.934z"/>
  <path class="fil10" d="M166.694 120.221c-3.782,2.029 -2.046,6.987 1.04,3.85 1.115,-1.132 -0.033,-0.68 1.358,-1.026 0.969,-0.242 1.627,0.073 1.441,-1.514 -0.198,-1.683 -2.631,-1.958 -3.839,-1.31z"/>
  <polygon class="fil10" points="15.291,146.224 53.264,114.517 "/>
  <path class="fil11" d="M186.581 286.868c-0.986,3.479 -5.882,-0.984 -6.04,-1.73 -0.626,-2.951 5.042,0.214 6.04,1.73zm252.474 -13.901c2.106,-1.119 4.177,4.991 1.959,6.01 -2.718,1.248 -3.912,-4.971 -1.959,-6.01zm14.232 0.604c3.496,-2.087 2.079,4.399 0.238,5.389 -3.345,1.798 -3.095,-3.683 -0.238,-5.389zm-30.274 -17.098l34.262 5.171 -0.058 3.285 -8.249 1.97c-0.147,2.506 -0.192,5.196 -0.402,7.658 -0.208,2.434 0.029,4.9 -2.985,4.833 -2.826,-3.174 -0.379,-8.135 -1.125,-11.993l-38.164 -0.54c-25.637,-0.385 -65.043,5.141 -33.483,-29.444 9.29,-10.181 18.127,-11.859 29.086,-3.739 11.63,8.617 18.367,8.359 21.118,22.799zm38.745 -2.049c-0.322,-3.397 3.535,-3.092 3.759,-1.406 0.188,1.414 -1.953,3.687 -3.759,1.406zm-9.422 -0.376c-2.911,-0.562 -2.787,-7.023 -0.78,-7.513 2.11,-0.515 1.89,1.909 2.094,3.435 0.231,1.728 0.624,3.36 -1.314,4.078zm-213.64 -2.279c-0.206,-1.077 1.096,-1.391 1.951,-1.174 0.918,0.233 1.427,0.958 1.9,1.566 -1.296,2.626 -3.625,0.794 -3.851,-0.392zm218.922 -4.357c3.182,-2.347 2.84,4.798 0.294,5.901 -3.534,1.529 -2.157,-4.527 -0.294,-5.901zm-169.219 -7.741c2.041,-1.079 3.568,1.481 1.792,2.432 -1.551,0.831 -4.455,-1.024 -1.792,-2.432zm23.275 -0.361c2.175,-2.185 4.467,-0.461 3.768,1.281 -0.731,1.821 -3.906,1.8 -3.768,-1.281zm-11.321 -7.775c7.228,-1.445 14.729,9.353 3.459,9.752 -13.307,0.471 -11.421,-8.161 -3.459,-9.752zm145.043 -18.929l23.163 3.278 -0.246 1.343c-0.124,6.966 -50.406,7.87 -51.259,5.476l-0.003 -0.873 19.112 -0.082 0.401 -0.756 -2.904 -2.418c-8.152,-0.243 -20.896,0.085 -28.542,-2.301 -10.202,-3.183 1.046,-15.464 5.313,-18.522 7.883,-5.652 12.448,-8.172 20.978,-1.658 8.014,6.12 12.797,6.206 13.987,16.513zm-49.573 -31.71c-2.533,0.714 -3.453,-2.266 -1.342,-3 2.328,-0.81 3.36,1.71 1.342,3zm-6.418 -3.184c1.682,-0.835 3.282,1.725 1.211,3.02 -1.66,1.038 -3.954,-1.659 -1.211,-3.02zm13.506 -19.453c-1.893,3.223 -5.407,-2.124 -0.892,-1.977 0.694,0.732 1.049,0.911 0.892,1.977zm5.388 -3.549c1.209,2.435 -0.78,3.226 -2.477,2.194 -2.084,-1.268 -0.243,-3.16 2.477,-2.194zm4.158 0.159c0.423,-2.418 2.9,-2.442 3.79,-0.277 -0.845,1.595 -2.725,1.839 -3.79,0.277zm-112.773 45.87l85.366 4.336c0.754,-0.066 2.191,1.954 1.426,3.486 -0.46,1.218 -0.919,2.437 -1.379,3.655 -2.985,4.86 -0.38,7.493 -2.714,7.407 -14.41,-0.531 -7.799,2.667 -17.755,-3.764 0.364,4.811 -6.275,2.968 -9.392,3.045 -11.06,1.998 -26.011,0.242 -38.074,1.18 -10.296,0.801 -29.65,-0.634 -38.035,1.14 -0.655,0.139 -42.164,27.773 -47.637,31.093 -33.365,20.241 -67.361,37.272 -101.915,55.179l368.644 0 0 -158.1c-13.145,-0.267 -26.59,-0.166 -39.758,-0.143 -6.65,0.012 -13.389,-0.088 -20.017,-0.02 -20.423,0.213 -8.21,2.284 -8.573,5.072l-0.061 0.825 -9.376 -0.695 -0.129 -1.442 3.651 -1.528 -0.203 -2.086 -92.82 -0.015c3.218,20.086 -19.34,38.237 -31.249,51.375z"/>
  <path class="fil11" d="M74.791 223.486c-1.715,-0.454 -1.939,-2.405 -0.285,-2.459 1.615,-0.052 1.968,1.676 0.285,2.459zm53.937 -5.423c-2.422,-0.913 -1.936,-3.354 0.252,-3.166 1.92,0.164 2.462,2.759 -0.252,3.166zm-82.097 -7.259c0.269,-7.525 -0.895,-16.298 0.337,-23.723 0.799,-4.814 4.886,-3.795 5.784,0.404 0.645,3.021 0.548,8.66 0.471,11.861 -0.048,2.009 -1.743,29.009 -2.763,11.914 -0.26,-4.358 0.997,-21.127 -0.478,-23.746l-0.91 -0.001 -0.039 31.711 0.872 0.001c6.306,2.101 10.477,-15.579 10.426,-15.677l-0.497 -0.263 -6.732 12.11c-2.279,-2.44 5.057,-18.512 10.136,-15.611l1.058 0.382 -5.043 13.965 -0.699 -1.005 12.252 -6.173 2.038 2.619 -7.473 9.483 4.176 0.34c-0.856,5.338 -39.927,5.456 -40.116,0.507l2.891 -0.779 -6.266 -15.652c8.995,-3.601 9.768,8.412 13.878,12.511l-1.653 -16.03 0.868 -0.09c5.053,-3.422 6.515,7.85 7.482,10.942zm57.835 -33.91c0.945,2.804 -2.604,2.638 -3.556,1.868 -1.518,-1.229 0.806,-3.1 3.556,-1.868zm-47.493 -7.843c0.298,2.732 -3.349,2.451 -3.96,1.165 -0.974,-2.051 2.494,-2.455 3.96,-1.165zm-56.973 115.688l191.596 -79.409c-1.279,-1.968 -10.033,-6.051 -7.636,-11.905 2.936,-7.171 12.042,2.099 12.898,2.394l-0.99 -0.412 7.641 -18.333 0.736 0.307c-2.626,-2.563 -8.765,-2.667 -9.788,-9.278 -0.711,-4.595 -0.085,-13.715 -0.111,-18.629l-194.346 -0.161 0 135.426z"/>
  <path class="fil11" d="M67.359 116.09l-12.589 -2.338 -3.003 0.476 -13.719 9.508 -22.757 22.488 179.078 0.137 -0.324 -16.2c-6.327,2.819 -6.549,5.598 -15.281,5.319 -3.13,-0.101 -13.33,-3.596 -15.433,-5.5 -4.247,-3.845 -3.159,-11.257 2.445,-13.144 10.806,-3.638 7.66,9.045 7.857,10.034 2.843,4.451 15.071,0.84 17.195,-2.992 -5.364,-3.382 -14.445,-10.55 -19.417,-14.766 -13.541,-11.484 -8.306,-7.847 -21.515,-2.679 1.757,-0.436 3.566,-1.166 5.269,-1.309 0.803,0.129 1.072,0.738 1.608,1.108 0.376,0.67 -5.249,8.518 -5.994,8.255 -2.159,-1.279 -1.242,-4.452 -2.186,-2.619 -0.732,1.422 -1.358,3.963 -2.197,4.264 -4.76,0.385 -8.726,-1.707 -10.825,-6.149 -1.679,-3.553 -5.602,-7.421 -8.252,-10.703 -6.138,-7.601 -9.761,-16.513 -14.718,-23.037l-0.154 -0.073 -45.088 39.92z"/>
  <path class="fil11" d="M305.778 129.325c14.397,4.55 16.506,3.309 24.346,16.819l93.578 -0.537c-0.727,-1.628 -0.281,-18.013 -0.21,-20.95 0.205,-3.403 -7.348,-13.3 -7.863,-12.688 -1.894,2.25 -3.752,4.457 -5.9,6.563 -0.857,0.84 -5.394,-2.962 -8.352,-3.004 -1.01,-0.014 -0.359,2.075 -0.983,2.87 -0.259,0.33 -1.015,0.328 -1.257,-0.013 -0.78,-1.099 -0.716,-1.814 -1.407,-2.971 -0.132,-0.22 -0.305,0.019 -0.473,-0.176 -10.842,-12.538 -15.427,-22.36 -27.007,-37.171l-1.833 -1.198 -62.639 52.456z"/>
  <polygon class="fil11" points="364.479,259.06 380.187,263.646 379.103,261.225 399.905,248.055 400.736,248.685 393.251,236.136 "/>
  <path class="fil11" d="M426.969 146.241l26.989 0.364 -0.512 -0.723 -7.589 -10.18c-1.869,1.123 -0.481,0.58 0.506,3.529l-1.297 1.056 -18.017 -17.827 -0.08 23.781z"/>
  <path class="fil12" d="M251.67 107.515c6.482,-1.048 7.413,4.369 2.526,5.424 -5.938,1.281 -8.051,-4.531 -2.526,-5.424zm-46.987 0.032c5.341,-1.841 9.01,3.518 4.507,5.17 -5.051,1.853 -9.04,-3.607 -4.507,-5.17zm17.657 -6.188c3.349,-1.295 3.234,8.673 9.364,4.709 2.469,-1.597 1.358,-3.978 3.181,-4.716 2.663,-1.079 3.011,2.261 2.07,4.345 -5.89,13.051 -20.8,-1.947 -14.615,-4.338zm25.03 -7.551c7.906,-1.575 9.844,10.953 2.731,12.343 -8.338,1.629 -10.216,-10.852 -2.731,-12.343zm-38.271 0.081c7.118,-2.35 10.874,9.135 3.725,11.926 -7.213,2.816 -10.878,-9.564 -3.725,-11.926zm-7.138 50.099c7.398,7.256 49.299,6.823 59.006,3.128l0.297 -71.283 -55.099 -1.996 -4.056 -1.932 -0.148 72.083z"/>
  <path class="fil13" d="M251.128 201.5c1.596,-0.205 8.489,1.476 -5.671,7.261 -1.805,0.737 -4.648,-0.104 -4.031,-2.35 0.379,-1.377 3.112,-1.82 4.151,-2.925l2.019 -1.515 -2.555 1.952c-16.936,3.088 -31.088,5.365 -47.917,8.987 -0.55,0.118 -0.635,1.692 -0.072,1.687l27.315 -0.25c1.02,-0.21 2.082,-0.474 2.687,-1.244l52.362 -0.11 17.27 -14.279 -45.558 2.786z"/>
  <path class="fil14" d="M261.264 75.833l-0.297 71.283 10.826 -4.374c-0.32,-0.954 0.169,-11.753 0.219,-13.656 -3.096,-1.616 -11.332,-2.21 -6.647,-8.01l6.702 0.6 0.074 -50.099 -10.877 4.256z"/>
  <path class="fil15" d="M61.893 96.476c2.289,-12.333 -16.552,-19.084 -24.05,-8.018 -6.398,9.442 -0.767,10.293 6.485,11.489 3.91,0.644 16.593,1.765 17.565,-3.471z"/>
  <path class="fil16" d="M260.747 150.568l-2.025 25.119c4.402,-0.532 12.487,-3.45 12.777,-8.563 0.276,-4.857 0.663,-15.9 0.238,-20.452l-10.99 3.896z"/>
  <path class="fil17" d="M232.707 60.773c1.465,0.626 3.454,0.39 5.13,0.394l-0.237 7.237c3.195,-0.312 6.008,-1.028 8.376,-2.809l0.208 -6.792c-5.72,1.994 -7.118,2.207 -13.477,1.97z"/>
  <path class="fil18" d="M261.632 70.636c0.006,0.01 0.244,0.289 0.25,0.301l0.618 0.959c2.981,-0.723 8.995,-2.454 9.088,-6.002 -1.823,-3.925 -20.378,-8.367 -22.114,-6.916 0.356,2.471 19.444,1.484 17.244,8.116 -1.864,2.541 -6.732,1.797 -5.086,3.542z"/>
  <path class="fil19" d="M306.179 237.175c-0.975,-3.001 -6.319,-4.311 -8.606,-1.586 -3.029,3.611 6.969,2.889 8.606,1.586z"/>
  <path class="fil9" d="M221.228 218.026c0.966,2.202 3.707,1.213 5.264,0.397 2.393,-1.255 9.182,-3.13 9.596,-5.747 -2.006,-4.022 -16.071,2.588 -14.86,5.35z"/>
  <path class="fil9" d="M241.426 206.411c-0.617,2.246 2.226,3.087 4.031,2.35 14.16,-5.785 7.267,-7.466 5.671,-7.261 -1.812,0.648 -9.228,3.187 -9.702,4.911z"/>
  <path class="fil2" d="M225.477 163.119c-2.52,0.129 -6.932,-1.239 -6.492,2.162 -0.67,3.979 18.574,2.537 18.617,1.934l0.249 -3.426c0.068,-0.932 -10.499,-0.444 -12.374,-0.67z"/>
  <path class="fil9" d="M197.351 203.937c-2.842,0.566 -12.531,-6.901 -10.378,-8.884 2.618,-2.411 10.558,7.413 10.378,8.884zm4.76 -3.448l7.787 -21.613 1.298 1.366 29.156 1.996 -38.241 18.251zm56.611 -24.802c-9.581,4.584 -48.311,3.691 -56.882,-3.042 -7.616,-2.909 -4.344,-20.824 -4.55,-27.939l4.262 2.534c17.283,9.057 40.712,5.623 59.195,3.328l10.99 -3.896c0.425,4.552 0.038,15.595 -0.238,20.452 -0.29,5.113 -8.375,8.031 -12.777,8.563zm22.927 -27.51c0.021,4.592 1.486,1.98 -1.959,5.848 -1.12,1.258 -3.329,3.503 -5.107,3.948l0.287 -5.842 0.244 -21.934 0.927 -0.794 10.426 12.537 -1.479 0.78 -3.339 5.457zm86.768 -71.308l1.833 1.198c5.472,2.901 30.892,29.847 34.236,29.744 3.985,-0.124 6.322,-5.545 11.516,-1.98 2.794,1.918 7.684,4.477 7.781,8.099 0.267,10.08 0.045,21.51 -0.081,31.677l-93.578 0.537c-7.84,-13.51 -9.949,-12.269 -24.346,-16.819 -4.933,-0.601 10.297,-12.013 12.406,-14.1 4.549,-4.501 11.082,-9.524 16.08,-13.946 4.994,-4.418 28.382,-27.97 34.153,-24.41zm58.552 69.372l0.08 -23.781c-0.021,-1.481 -0.58,-6.534 0.245,-7.467 4.234,2.91 10.618,10.204 14.664,7.04 8.136,-6.363 14.042,4.257 21.251,8.787 4.721,3.876 13.349,11.046 16.832,15.249l-53.072 0.172zm-260.275 -26.02c1.208,-0.648 3.641,-0.373 3.839,1.31 0.186,1.587 -0.472,1.272 -1.441,1.514 -1.391,0.346 -0.243,-0.106 -1.358,1.026 -3.086,3.137 -4.822,-1.821 -1.04,-3.85zm94.273 26.895c-9.707,3.695 -51.608,4.128 -59.006,-3.128 -7.234,-2.676 -4.873,-7.566 -4.887,-14.983 -0.013,-6.49 0.003,-12.972 0.015,-19.462 0.01,-6.367 -0.809,-34.611 0.315,-38.444l8.59 3.66c7.544,1.566 13.682,2.328 22.025,2.406 10.879,0.298 22.163,0.124 33.245,-1.332l10.877 -4.256 -0.074 50.099 -6.702 -0.6c-4.685,5.8 3.551,6.394 6.647,8.01 -0.05,1.903 -0.539,12.702 -0.219,13.656l-10.826 4.374zm-245.676 -0.892c12.851,-10.88 30.322,-28.876 37.973,-31.707 2.174,-0.855 4.348,1.573 6.523,2.359 2.547,1.331 7.029,0.884 9.195,-0.891 5.608,-7.443 34.529,-42.195 43.465,-39.815l0.154 0.073 37.295 30.19c13.209,-5.168 7.974,-8.805 21.515,2.679 4.972,4.216 14.053,11.384 19.417,14.766 -2.124,3.832 -14.352,7.443 -17.195,2.992 -0.197,-0.989 2.949,-13.672 -7.857,-10.034 -5.604,1.887 -6.692,9.299 -2.445,13.144 2.103,1.904 12.303,5.399 15.433,5.5 8.732,0.279 8.954,-2.5 15.281,-5.319l0.324 16.2 -179.078 -0.137zm411.722 -68.854c0.418,-10.332 -3.875,-19.513 10.029,-17.287 13.454,2.154 4.577,5.463 21.482,0.445l-0.568 14.836 -0.066 1.827 -30.877 0.179zm-165.381 -6.734c1.227,-1.012 4.511,-1.808 5.086,-3.542 2.2,-6.632 -16.888,-5.645 -17.244,-8.116 1.736,-1.451 20.291,2.991 22.114,6.916 -0.093,3.548 -6.107,5.279 -9.088,6.002 -8.867,1.524 -63.393,6.8 -64.771,-5.961 0.031,-3.572 6.297,-5.464 10.849,-6.811 3.368,-0.996 7.127,-1.16 10.71,-1.34l0.42 1.437c-0.998,1.513 -21.568,1.705 -15.371,9.161 3.156,3.798 17.183,4.862 21.742,4.16 -7.544,-0.435 -18.966,-3.943 -20.137,-4.872 -1.171,-0.929 -0.73,-2.119 0.212,-2.32l13.453 -3.119 0.133 0.575c0.835,4.955 0.135,5.322 5.339,6.835 7.733,2.748 12.736,2.4 20.191,-0.054 4.995,-1.44 3.576,-3.194 4.443,-7.096 4.642,1.032 12.385,1.212 13.964,2.347 1.077,0.774 0.997,2.819 0.222,3.035 -0.774,0.216 -11.709,2.886 -14.161,3.914 -2.452,1.027 -0.153,1.014 0.191,0.881l11.703 -2.032zm-35.013 -10.894l6.088 1.031c6.359,0.237 7.757,0.024 13.477,-1.97l-0.208 6.792c-2.368,1.781 -5.181,2.497 -8.376,2.809l-10.765 -1.383c-6.887,-1.857 -4.066,-11.229 0.298,-12.273 3.554,-0.851 15.104,-1.399 17.89,0.951l0.049 1.453 -20.002 0.673 1.549 1.917zm-226.619 86.276l0 3.295 194.346 0.161c0.026,4.914 -0.6,14.034 0.111,18.629 1.023,6.611 7.162,6.715 9.788,9.278l-0.736 -0.307 -7.641 18.333 0.99 0.412c-0.856,-0.295 -9.962,-9.565 -12.898,-2.394 -2.397,5.854 6.357,9.937 7.636,11.905l-191.596 79.409 0 3.772c19.421,-10.04 41.559,-18.156 61.749,-26.866 20.546,-8.864 42.122,-17.567 62.977,-25.715 19.082,-7.456 45.537,-16.398 63.141,-25.518 9.897,-5.127 8.573,1.397 14.109,-6.232 1.234,-1.701 12.115,-6.145 14.831,-7.399 9.302,-4.292 20.979,-9.569 29.522,-14.977 2.113,3.251 2.426,5.854 6.007,8.476 5.321,3.897 8.057,-0.122 11.329,-0.483 3.914,9.528 12.861,7.267 6.314,-6.045 -2.535,-5.155 -5.241,-3.531 -8.592,-0.484 -4.387,3.989 -8.096,0.979 -7.427,-2.69 4.411,-2.72 15.64,-2.18 19.831,-9.372 2.961,-5.083 -1.505,-7.459 3.096,-10.811 3.215,-2.342 4.746,-4.566 6.966,-7.693 6.093,4.75 13.058,-3.338 9.28,-8.22 -0.267,-0.347 -7.026,-13.373 -7.541,-14.567 17.23,0.905 47.207,3.431 42.116,28.191 -2.226,10.826 -21.614,35.437 -31.022,40.608l-17.27 14.279c-17.5,16.368 -57.533,37.631 -79.433,49.827 -26.103,14.538 -61.02,29.181 -84.927,44.676l6.912 0c65.381,-34.818 119.023,-59.716 177.716,-106.757 11.909,-13.138 34.467,-31.289 31.249,-51.375l92.82 0.015 0.203 2.086 -3.651 1.528 0.129 1.442 9.376 0.695 0.061 -0.825c0.363,-2.788 -11.85,-4.859 8.573,-5.072 6.628,-0.068 13.367,0.032 20.017,0.02 13.168,-0.023 26.613,-0.124 39.758,0.143l0 -3.219c-18.237,-0.299 -12.419,0.875 -25.77,-10.029 -6.585,-5.378 -13.176,-10.716 -19.73,-16.135 -6.01,-4.97 -7.504,-0.694 -12.704,0.675 -3.101,0.817 -7.811,-4.945 -10.322,-6.834 -4.89,-3.677 -2.971,-26.12 -2.621,-32.895 16.735,-6.52 13.95,2.83 26.351,-0.09 5.178,-1.219 8.089,-2.523 7.964,-8 -0.012,-0.507 -0.086,-10.786 -0.277,-14.105l-33.478 -1.056 -0.844 -2.987c-0.631,-0.236 -2.54,0.024 -3.117,0.385l0.066 53.458c-2.156,-0.787 -5.407,-4.925 -8.97,-6.237 -4.126,-1.519 -7.07,1.842 -10.493,3.044 -0.568,-0.223 -25.647,-23.719 -28.636,-26.439 -7.2,-6.55 -9.705,-7.599 -17.828,-1.369 -4.983,3.822 -10.169,8.208 -14.811,12.439 -9.615,8.766 -19.597,16.912 -29.161,25.607 -4.034,3.668 -10.339,12.003 -15.691,11.978 -13.185,-0.06 -11.72,0.502 -23,-4.699 0.511,-10.917 1.753,-47.538 0.184,-56.526 -1.158,-6.637 -13.043,-8.733 -18.506,-9.835 -10.926,-2.203 -10.672,-5.642 -22.748,-5.671 -3.912,-0.01 -8.57,0.239 -11.772,2.688 -4.083,3.122 -6.458,1.97 -11.167,3.025 -6.318,1.417 -16.459,3.24 -16.971,11.278 -0.566,8.866 2.267,50.681 -1.885,54.936 -0.045,-0.008 -20.503,-16.838 -22.609,-18.598 -17.814,-14.878 -14.883,8.131 -26.245,-5.199 -5.131,-6.021 -15.513,-15 -21.789,-20.178 -12.043,-9.935 -15.789,-5.257 -25.763,4.558 -6.902,6.791 -14.192,14.19 -20.274,21.706 -17.813,22.018 -11.128,2.802 -25.94,7.312 -4.977,1.515 -18.473,14.93 -22.959,19.137 -10.135,9.504 -12.113,15.641 -26.703,14.497z"/>
 </g>
</svg>
